<svg xmlns="http://www.w3.org/2000/svg" width="256" height="256"><path fill-opacity=".016" d="M0 128.004v128.004l128.25-.254 128.25-.254.254-127.75L257.008 0H0v128.004m.485.496c0 70.4.119 99.053.265 63.672.146-35.38.146-92.98 0-128C.604 29.153.485 58.1.485 128.5" fill="#212121" fill-rule="evenodd"/><path fill-opacity=".179" d="M150.721 22.567C130.256 27.525 115 44.593 115 62.53v4.167l-5.75-.941c-8.028-1.314-24.297-.284-33.453 2.118-10.038 2.632-20.682 7.883-29.341 14.473-29.332 22.324-36.948 64.58-17.038 94.529 11.398 17.145 28.214 28.458 64.629 43.476 3.6 1.485 10.35 4.948 15 7.694 14.415 8.517 20.007 9.263 28.902 3.859 2.503-1.521 13.101-5.688 23.551-9.262 23.141-7.912 30.237-11.042 41.124-18.139 15.849-10.33 26.764-23.988 32.151-40.226 2.281-6.877 2.586-9.457 2.635-22.278.065-16.969-1.764-25.072-8.673-38.443-6.305-12.202-18.285-23.838-30.786-29.901-9.18-4.453-19.594-7.611-25.201-7.641-3.222-.018-3.482-1.043-.863-3.413 3.685-3.334 7.434-13.618 7.907-21.687.57-9.734-1.69-18.386-5.038-19.283-3.961-1.062-18.058-.513-24.035.935M108 53.313c0 .172 1.463 1.635 3.25 3.25l3.25 2.937-2.937-3.25c-2.738-3.029-3.563-3.71-3.563-2.937" fill="#212121" fill-rule="evenodd"/><path fill-opacity=".33" d="M159 21.578c-13.335 2.266-19.382 4.541-26.489 9.966-6.465 4.935-10.126 9.185-12.957 15.042-2.569 5.316-4.859 16.455-3.899 18.958.667 1.738.945 1.726-9.604.403-16.002-2.006-36.635 2.504-51.551 11.268-3.862 2.27-10.631 7.738-15.1 12.199C25.683 103.107 19.038 119.612 19.032 140c-.004 16.715 4.909 30.478 15.439 43.243 10.272 12.453 26.564 22.909 52.576 33.742 7.748 3.227 17.094 7.679 20.77 9.895 14.64 8.824 22.139 10.17 28.883 5.183 1.685-1.245 12.229-5.409 23.432-9.252 11.202-3.843 23.691-8.521 27.751-10.396 22.751-10.502 40.289-28.418 46.084-47.077 6.032-19.424 4.46-40.154-4.463-58.838-7.416-15.528-17.653-25.803-33.004-33.128C189.46 70.013 175.737 66 171.289 66h-2.391l2.437-3.25c6.987-9.32 9.555-19.544 7.688-30.614-.646-3.828-1.703-7.667-2.349-8.531-1.205-1.611-12.498-2.907-17.674-2.027m-8.108 6.871c-11.856 3.27-22.992 12.858-26.821 23.092-2.125 5.679-2.74 16.887-1.149 20.959.614 1.572.165 2.375-2.095 3.75-3.622 2.205-3.827 2.19-3.827-.275 0-3.312-4.394-4.32-19-4.357-14.816-.037-21.32 1.24-32.788 6.44-35.198 15.96-50.092 57.587-32.576 91.044 9.047 17.281 26.13 30.044 57.364 42.857 6.875 2.82 16.831 7.598 22.123 10.618 5.293 3.019 11.104 5.914 12.913 6.433 3.347.96 3.413.941 10.726-3.228 1.657-.944 11.726-4.68 22.376-8.302 23.316-7.93 35.021-13.432 45.717-21.492 19.18-14.452 28.216-34.125 26.845-58.447-.703-12.476-2.556-19.665-7.865-30.507-5.776-11.795-16.074-22.093-27.869-27.869-7.96-3.897-18.093-7.165-22.22-7.165-1.192 0-1.731-.613-1.54-1.75.252-1.498-.666-1.792-6.365-2.044l-6.659-.293 4.702-4.707c6.571-6.577 9.483-13.004 9.954-21.964.21-3.992.087-8.83-.274-10.75L171.909 27l-8.204.089c-4.513.05-10.278.662-12.813 1.36" fill="#212121" fill-rule="evenodd"/><path fill-opacity=".16" d="M81 67.522c-14.213 2.916-25.874 8.396-36.474 17.139-24.738 20.405-32.412 56.039-18.36 85.249 3.245 6.745 5.758 10.137 12.69 17.131 12.46 12.57 24.105 19.643 49.404 30.01 6.732 2.758 16.29 7.441 21.24 10.405 13.846 8.292 20.009 9.208 27.475 4.085 1.939-1.33 12.3-5.386 23.025-9.013 40.914-13.837 59.689-27.14 70.653-50.063 5.025-10.505 6.624-19.568 6.083-34.465-.39-10.763-.914-13.874-3.765-22.382-7.182-21.434-22.305-37.175-42.863-44.615-9.594-3.472-20.981-5.53-22.453-4.058-.74.74-.108 1.055 2.114 1.055 2.365 0 3.026.37 2.609 1.458-.384.999.334 1.656 2.281 2.087 23.584 5.223 39.575 17.109 49.518 36.805 4.835 9.579 7.006 19.585 7.084 32.65.116 19.486-4.956 33.117-17.202 46.23-12.595 13.487-25.029 20.295-57.059 31.242-10.725 3.665-21.178 7.759-23.229 9.096-6.006 3.918-9.224 3.213-22.375-4.905-3.325-2.052-12.316-6.353-19.982-9.559-28.371-11.865-42.538-20.99-52.705-33.949-9.501-12.11-13.669-24.206-13.694-39.745-.031-18.977 6.264-34.014 19.854-47.43 9.915-9.787 20.194-15.613 33.631-19.06 8.934-2.292 25.995-2.872 33.307-1.132 4.287 1.02 4.306 1.012 4-1.62-.258-2.223-.944-2.756-4.307-3.349-6.442-1.134-23.46-.742-30.5.703" fill="#212121" fill-rule="evenodd"/></svg>